# AST/ASF file generated using VICON BodyLanguage
# -----------------------------------------------
:version 1.10
:name VICON
:units
  mass 1.0
  length 0.45
  angle deg
:documentation
   .ast/.asf automatically generated from VICON data using
   VICON BodyBuilder and BodyLanguage model FoxedUp or BRILLIANT.MOD
:root
   order TX TY TZ RX RY RZ
   axis XYZ
   position 0 0 0  
   orientation 0 0 0 
:bonedata
  begin
     id 1 
     name lhipjoint
     direction 0.575328 -0.747301 0.332475 
     length 2.40933 
     axis 0 0 0  XYZ
  end
  begin
     id 2 
     name lfemur
     direction 0.34202 -0.939693 0  
     length 7.31453  
     axis 0 0 20  XYZ
    dof rx ry rz
    limits (-160.0 20.0)
           (-70.0 70.0)
           (-60.0 70.0)
  end
  begin
     id 3 
     name ltibia
     direction 0.34202 -0.939693 0   
     length 7.82185   
     axis 0 0 20   XYZ
    dof rx
    limits (-10.0 170.0)
  end
  begin
     id 4 
     name lfoot
     direction 0.0795993 -0.218697 0.972541   
     length 2.19173   
     axis -90 7.62852e-016 20   XYZ
    dof rx rz
    limits (-45.0 90.0)
           (-70.0 20.0)
  end
  begin
     id 5 
     name ltoes
     direction 1.53537e-011 -4.21894e-011 1   
     length 1.10023   
     axis -90 7.62852e-016 20   XYZ
    dof rx
    limits (-90.0 20.0)
  end
  begin
     id 6 
     name rhipjoint
     direction -0.513884 -0.783789 0.348708   
     length 2.29716  
     axis 0 0 0  XYZ 
  end
  begin
     id 7 
     name rfemur
     direction -0.34202 -0.939693 0   
     length 7.59573   
     axis 0 0 -20   XYZ
    dof rx ry rz
    limits (-160.0 20.0)
           (-70.0 70.0)
           (-70.0 60.0)
  end
  begin
     id 8 
     name rtibia
     direction -0.34202 -0.939693 0   
     length 7.66402   
     axis 0 0 -20   XYZ
    dof rx
    limits (-10.0 170.0)
 end
 begin
     id 9 
     name rfoot
     direction -0.137793 -0.378584 0.915253   
     length 2.27056  
     axis -90 -7.62852e-016 -20   XYZ
    dof rx rz
    limits (-45.0 90.0)
           (-20.0 70.0)
  end
  begin
     id 10 
     name rtoes
     direction -1.53493e-011 -4.22159e-011 1   
     length 1.11766   
     axis -90 -7.62852e-016 -20   XYZ
    dof rx
    limits (-90.0 20.0)
  end
  begin
     id 11 
     name lowerback
     direction -0.00732775 0.998356 -0.05685   
     length 2.16513   
     axis 0 0 0   XYZ
    dof rx ry rz
    limits (-20.0 45.0)
           (-30.0 30.0)
           (-30.0 30.0)
  end
  begin
     id 12 
     name upperback
     direction 0.0218081 0.999627 -0.0164647   
     length 2.16755   
     axis 0 0 0   XYZ
    dof rx ry rz
    limits (-20.0 45.0)
           (-30.0 30.0)
           (-30.0 30.0)
  end
  begin
     id 13 
     name thorax
     direction 0.02365 0.999661 0.0108914   
     length 2.16932   
     axis 0 0 0   XYZ
    dof rx ry rz
    limits (-20.0 45.0)
           (-30.0 30.0)
           (-30.0 30.0)
  end
  begin
     id 14 
     name lowerneck
     direction -0.0523929 0.978385 0.200044   
     length 1.63877   
     axis 0 0 0   XYZ
    dof rx ry rz
    limits (-20.0 45.0)
           (-30.0 30.0)
           (-30.0 30.0)
  end
  begin
     id 15 
     name upperneck
     direction 0.0448674 0.981321 -0.187074   
     length 1.69014   
     axis 0 0 0   XYZ
    dof rx ry rz
    limits (-20.0 45.0)
           (-30.0 30.0)
           (-30.0 30.0)
  end
  begin
     id 16
     name head
     direction 0.0199089 0.996118 -0.0857429  
     length 1.70094  
     axis 0 0 0   XYZ
    dof rx ry rz
    limits (-20.0 45.0)
           (-30.0 30.0)
           (-30.0 30.0)
  end
  begin
     id 17 
     name lclavicle
     direction 0.940366 0.30191 -0.156722  
     length 3.37521  
     axis 0 0 0   XYZ
    dof ry rz
    limits (-20.0 10.0)
           (0.0 20.0)
  end
  begin
     id 18 
     name lhumerus
     direction 1 -4.4897e-011 -1.7911e-027   
     length 5.25287   
     axis 180 -30 -90   XYZ
    dof rx ry rz
    limits (-60.0 90.0)
           (-90.0 90.0)
           (-90.0 90.0)
  end
  begin
     id 19
     name lradius
     direction 1 -4.48951e-011 1.04424e-027   
     length 3.51014   
     axis 180 -30 -90   XYZ
    dof rx
    limits (-10.0 170.0)
  end
  begin
     id 20
     name lwrist
     direction 1 -4.48997e-011 -9.5942e-028   
     length 1.75507   
     axis 8.48502e-016 90 90   XYZ
    dof ry
    limits (-180.0 0.0)
 end
  begin
     id 21 
     name lhand
     direction 1 -4.48831e-011 -1.90777e-027   
     length 0.706179   
     axis 1.22306e-015 90 90   XYZ
    dof rx rz
    limits (-90.0 90.0)
           (-45.0 45.0)
  end
  begin
     id 22 
     name lfingers
     direction 1 -4.49108e-011 -3.85244e-027   
     length 0.569339   
     axis 2.44611e-015 90 90   XYZ
    dof rx
    limits (0.0 90.0)
  end
  begin
     id 23
     name lthumb
     direction 0.707107 -6.34953e-011 0.707107   
     length 0.817461   
     axis -90 45 -1.62303e-014   XYZ
    dof rx rz
    limits (-45.0 45.0)
           (-45.0 45.0)
  end
  begin
     id 24 
     name rclavicle
     direction -0.905329 0.382405 -0.184787   
     length 3.30787  
     axis 0 0 0   XYZ 
    dof ry rz
    limits (-10.0 20.0)
           (-20.0 0.0)
  end
  begin
     id 25 
     name rhumerus
     direction -1 -4.48953e-011 -9.15316e-029  
     length 5.28721   
     axis 180 30 90   XYZ
    dof rx ry rz
    limits (-90.0 60.0)
           (-90.0 90.0)
           (-90.0 90.0)
  end
  begin
     id 26 
     name rradius
     direction -1 -4.48987e-011 9.37824e-028   
     length 3.50544   
     axis 180 30 90   XYZ
    dof rx
    limits (-10.0 170.0)
  end
  begin
     id 27 
     name rwrist
     direction -1 -4.48967e-011 -9.58414e-028   
     length 1.75272   
     axis 8.48502e-016 -90 -90   XYZ
    dof ry
    limits (-180.0 0.0)
  end
  begin
     id 28
     name rhand
     direction -1 -4.48904e-011 -1.91266e-027   
     length 0.884996   
     axis 1.22306e-015 -90 -90   XYZ
    dof rx rz
    limits (-90.0 90.0)
           (-45.0 45.0)
  end
  begin
     id 29
     name rfingers
     direction -1 -4.4909e-011 -3.85015e-027   
     length 0.713507   
     axis 2.44611e-015 -90 -90   XYZ
    dof rx
    limits (0.0 90.0)
  end
  begin
     id 30
     name rthumb
     direction -0.707107 -6.34853e-011 0.707107   
     length 1.02446   
     axis -90 -45 1.62303e-014   XYZ
    dof rx rz
    limits (-45.0 45.0)
           (-45.0 45.0)
  end
:hierarchy
  begin
    root lhipjoint rhipjoint lowerback
    lhipjoint lfemur
    lfemur ltibia
    ltibia lfoot
    lfoot ltoes
    rhipjoint rfemur
    rfemur rtibia
    rtibia rfoot
    rfoot rtoes
    lowerback upperback
    upperback thorax
    thorax lowerneck lclavicle rclavicle
    lowerneck upperneck
    upperneck head
    lclavicle lhumerus
    lhumerus lradius
    lradius lwrist
    lwrist lhand lthumb
    lhand lfingers
    rclavicle rhumerus
    rhumerus rradius
    rradius rwrist
    rwrist rhand rthumb
    rhand rfingers
  end

#!OML:ASF F:\twosubjects\two\Thursday\Session 1\justin.ASF
:FULLY-SPECIFIED
:DEGREES
177
root 7.3602 9.36231 -21.4577 -24.8334 -2.79566 0.481322
lowerback 37.2017 1.55766 -1.17291
upperback 15.2611 1.57668 1.54583
thorax -1.72954 0.627372 1.70748
lowerneck -20.4222 -3.38691 -9.26553
upperneck 3.57235 -2.92457 7.90281
head 4.56975 -1.0676 3.70482
rclavicle -3.18055e-015 7.95139e-016
rhumerus 20.1701 36.1088 -72.4113
rradius 62.4652
rwrist 7.45428
rhand 13.0803 7.29973
rfingers 7.12502
rthumb 38.0417 -18.4881
lclavicle -3.18055e-015 7.95139e-016
lhumerus 22.5434 -38.5664 71.1598
lradius 60.0723
lwrist -33.3416
lhand 20.6395 37.8619
lfingers 7.12502
lthumb 45.1303 61.31
rfemur -68.2766 -17.3223 7.59331
rtibia 86.948
rfoot 6.04437 4.45698
rtoes -8.34949
lfemur -67.3712 19.3223 -4.89546
ltibia 88.966
lfoot 1.37063 -17.8593
ltoes -8.48852
178
root 7.36311 9.35972 -21.457 -24.827 -2.77403 0.460171
lowerback 37.2177 1.54371 -1.1254
upperback 15.2555 1.57564 1.54305
thorax -1.73976 0.629731 1.67983
lowerneck -20.2544 -3.44963 -9.2722
upperneck 3.22054 -3.01501 7.99597
head 4.44469 -1.10845 3.72627
rclavicle -5.56597e-015 -3.97569e-016
rhumerus 20.089 36.0953 -72.389
rradius 62.6
rwrist 7.36521
rhand 13.3931 7.08174
rfingers 7.12502
rthumb 38.337 -18.625
lclavicle -5.56597e-015 -3.97569e-016
lhumerus 22.5634 -38.6913 71.0904
lradius 60.1457
lwrist -33.2364
lhand 20.289 38.2222
lfingers 7.12502
lthumb 44.8042 61.7984
rfemur -68.2767 -17.389 7.59542
rtibia 86.9292
rfoot 6.06591 4.50136
rtoes -8.22224
lfemur -67.3939 19.2742 -4.90277
ltibia 88.9563
lfoot 1.6039 -17.8725
ltoes -9.55385
179
root 7.36608 9.35787 -21.4554 -24.8185 -2.75473 0.423348
lowerback 37.21 1.49613 -1.01399
upperback 15.257 1.55226 1.49963
thorax -1.73107 0.626172 1.58419
lowerneck -20.0795 -3.51796 -9.14542
upperneck 2.87138 -3.13358 7.95088
head 4.3168 -1.17061 3.67931
rclavicle 1.78906e-015 -4.37326e-015
rhumerus 20.0829 36.1015 -72.3638
rradius 62.645
rwrist 7.30903
rhand 13.324 7.16882
rfingers 7.12502
rthumb 38.2718 -18.5559
lclavicle 1.78906e-015 -4.37326e-015
lhumerus 22.6481 -38.7927 70.9733
lradius 60.1192
lwrist -33.125
lhand 20.3734 38.3735
lfingers 7.12502
lthumb 44.8827 61.9191
rfemur -68.287 -17.4662 7.62765
rtibia 86.917
rfoot 6.11714 4.55212
rtoes -8.58596
lfemur -67.4018 19.247 -4.89979
ltibia 88.947
lfoot 1.72462 -17.9284
ltoes -10.7781
180
root 7.36494 9.36161 -21.4554 -24.8183 -2.67687 0.592452
lowerback 37.1962 1.53293 -1.18266
upperback 15.2356 1.54 1.45062
thorax -1.7511 0.614957 1.62491
lowerneck -19.9972 -3.52423 -8.909
upperneck 2.64756 -3.17199 7.66535
head 4.22726 -1.2055 3.54597
rclavicle -4.57205e-015 5.1684e-015
rhumerus 20.1202 36.1275 -72.3594
rradius 62.4425
rwrist 7.483
rhand 12.5768 7.57478
rfingers 7.12502
rthumb 37.5661 -18.3412
lclavicle -4.57205e-015 5.1684e-015
lhumerus 22.619 -38.7774 70.9937
lradius 60.0456
lwrist -33.1659
lhand 20.72 38.0518
lfingers 7.12502
lthumb 45.2052 61.4701
rfemur -68.2949 -17.5086 7.43847
rtibia 86.9135
rfoot 6.13831 4.60508
rtoes -9.0345
lfemur -67.3901 19.2082 -5.09968
ltibia 88.9409
lfoot 1.86459 -17.8064
ltoes -8.73134
181
root 7.36164 9.36676 -21.4572 -24.8495 -2.66071 0.695103
lowerback 37.2726 1.6101 -1.35646
upperback 15.1679 1.5778 1.4653
thorax -1.85445 0.625357 1.71642
lowerneck -19.7541 -3.50113 -8.67818
upperneck 2.29268 -3.17808 7.37472
head 4.07025 -1.22747 3.41626
rclavicle -5.76476e-015 1.98785e-015
rhumerus 19.9945 36.1698 -72.3919
rradius 62.3217
rwrist 7.6043
rhand 12.1115 7.72797
rfingers 7.12502
rthumb 37.1262 -18.3038
lclavicle -5.76476e-015 1.98785e-015
lhumerus 22.4726 -38.8399 71.0924
lradius 60.0723
lwrist -33.2339
lhand 20.9469 38.0825
lfingers 7.12502
lthumb 45.4162 61.4162
rfemur -68.2485 -17.4626 7.3249
rtibia 86.8973
rfoot 6.16395 4.58295
rtoes -8.84136
lfemur -67.3172 19.2126 -5.18126
ltibia 88.9249
lfoot 1.9787 -17.7149
ltoes -6.92746
182
root 7.35952 9.3666 -21.4567 -24.905 -2.69638 0.683788
lowerback 37.4865 1.66258 -1.39718
upperback 15.024 1.62746 1.49996
thorax -1.93772 0.646091 1.75871
lowerneck -19.5583 -3.50312 -8.59191
upperneck 1.89409 -3.19671 7.31657
head 3.91603 -1.24196 3.38316
rclavicle -5.56597e-015 -7.95139e-016
rhumerus 19.8068 36.1539 -72.4572
rradius 62.4719
rwrist 7.5063
rhand 12.5721 7.58623
rfingers 7.12502
rthumb 37.5616 -18.331
lclavicle -5.56597e-015 -7.95139e-016
lhumerus 22.3979 -38.936 71.1567
lradius 60.1376
lwrist -33.2681
lhand 21.1118 38.4979
lfingers 7.12502
lthumb 45.5693 61.7696
rfemur -68.1902 -17.3892 7.32614
rtibia 86.9111
rfoot 6.15308 4.51348
rtoes -8.60987
lfemur -67.206 19.2536 -5.13152
ltibia 88.8997
lfoot 1.66675 -17.7872
ltoes -8.51396
183
root 7.35979 9.36384 -21.4544 -24.9009 -2.69915 0.653371
lowerback 37.4827 1.65879 -1.35957
upperback 15.0317 1.63633 1.51067
thorax -1.92802 0.651733 1.74763
lowerneck -19.5842 -3.5282 -8.66723
upperneck 1.54773 -3.20831 7.47571
head 3.81859 -1.23779 3.44504
rclavicle -7.35503e-015 4.37326e-015
rhumerus 19.7271 36.0842 -72.5493
rradius 62.5607
rwrist 7.49538
rhand 12.9466 7.51173
rfingers 7.12502
rthumb 37.9154 -18.3105
lclavicle -7.35503e-015 4.37326e-015
lhumerus 22.3911 -38.8211 71.2585
lradius 60.1196
lwrist -33.5554
lhand 21.7717 38.315
lfingers 7.12502
lthumb 46.1819 61.3334
rfemur -68.2004 -17.3955 7.35115
rtibia 86.9383
rfoot 6.05524 4.40466
rtoes -8.24121
lfemur -67.2237 19.2641 -5.10994
ltibia 88.8927
lfoot 1.45064 -17.8505
ltoes -9.76062
184
root 7.36149 9.3644 -21.4538 -24.815 -2.70591 0.462183
lowerback 37.2701 1.57589 -1.14732
upperback 15.1509 1.61189 1.56643
thorax -1.8732 0.647661 1.70151
lowerneck -19.6517 -3.60662 -8.88586
upperneck 1.16586 -3.25802 7.72417
head 3.72398 -1.24788 3.55473
rclavicle -8.54774e-015 -4.77083e-015
rhumerus 19.7083 36.0545 -72.5378
rradius 62.602
rwrist 7.44778
rhand 13.0701 7.47342
rfingers 7.12502
rthumb 38.0321 -18.3171
lclavicle -8.54774e-015 -4.77083e-015
lhumerus 22.3891 -38.6572 71.3797
lradius 60.0989
lwrist -33.8539
lhand 22.3564 38.0245
lfingers 7.12502
lthumb 46.7236 60.8115
rfemur -68.2341 -17.4462 7.54241
rtibia 86.934
rfoot 5.99598 4.30522
rtoes -7.59107
lfemur -67.4007 19.2453 -4.95267
ltibia 88.9236
lfoot 1.80113 -17.9078
ltoes -8.08392
185
root 7.36174 9.36862 -21.4556 -24.7929 -2.70902 0.273187
lowerback 37.2759 1.51041 -0.9576
upperback 15.1558 1.59772 1.61726
thorax -1.86729 0.647329 1.6604
lowerneck -19.6053 -3.65265 -9.06954
upperneck 0.689575 -3.27638 7.96096
head 3.58053 -1.24501 3.65877
rclavicle 4.96962e-015 -3.97569e-016
rhumerus 19.6733 36.0185 -72.5815
rradius 62.6129
rwrist 7.28646
rhand 13.1026 7.36875
rfingers 7.12502
rthumb 38.0628 -18.4134
lclavicle 4.96962e-015 -3.97569e-016
lhumerus 22.3786 -38.7637 71.3451
lradius 60.189
lwrist -33.686
lhand 21.7774 38.4274
lfingers 7.12502
lthumb 46.1871 61.4437
rfemur -68.1803 -17.4818 7.72355
rtibia 86.9182
rfoot 6.09349 4.32499
rtoes -7.65151
lfemur -67.4509 19.1963 -4.7689
ltibia 88.9307
lfoot 2.05244 -17.9369
ltoes -6.32056
186
root 7.36095 9.36965 -21.456 -24.8057 -2.69875 0.294732
lowerback 37.4587 1.53103 -0.971425
upperback 15.0379 1.61532 1.58177
thorax -1.90751 0.65665 1.62841
lowerneck -19.3227 -3.59411 -9.04469
upperneck -0.0184618 -3.20411 8.06801
head 3.31748 -1.20789 3.69781
rclavicle -8.34896e-015 0
rhumerus 19.6102 35.9005 -72.7994
rradius 62.5153
rwrist 7.50425
rhand 12.8787 7.3856
rfingers 7.12502
rthumb 37.8512 -18.4539
lclavicle -8.34896e-015 0
lhumerus 22.3743 -38.9723 71.2062
lradius 60.2647
lwrist -33.3547
lhand 20.9876 38.8298
lfingers 7.12502
lthumb 45.454 62.1483
rfemur -68.1699 -17.4772 7.70544
rtibia 86.9181
rfoot 6.22515 4.37131
rtoes -8.0145
lfemur -67.3858 19.1632 -4.78005
ltibia 88.8975
lfoot 2.06354 -17.8319
ltoes -6.44618
187
root 7.36228 9.36914 -21.4537 -24.7762 -2.67782 0.441308
lowerback 37.4808 1.56856 -1.0782
upperback 15.0123 1.62201 1.51729
thorax -1.94279 0.658602 1.61321
lowerneck -18.7569 -3.51299 -9.40879
upperneck -0.931884 -3.05411 8.6266
head 2.96214 -1.11732 3.95072
rclavicle -1.98785e-016 1.98785e-015
rhumerus 19.5614 35.8632 -72.8726
rradius 62.5182
rwrist 7.70833
rhand 12.7082 7.44301
rfingers 7.12502
rthumb 37.6902 -18.4398
lclavicle -1.98785e-016 1.98785e-015
lhumerus 22.4633 -39.0605 71.0893
lradius 60.2348
lwrist -33.0807
lhand 20.9057 38.8292
lfingers 7.12502
lthumb 45.3779 62.1784
rfemur -68.2417 -17.475 7.56122
rtibia 86.9215
rfoot 6.18956 4.41864
rtoes -8.15419
lfemur -67.3669 19.1601 -4.94173
ltibia 88.8835
lfoot 2.04659 -17.7541
ltoes -7.38343
188
root 7.36544 9.37032 -21.4512 -24.7723 -2.65486 0.499473
lowerback 37.4931 1.55706 -1.07997
upperback 15.0001 1.6058 1.48845
thorax -1.95857 0.652332 1.58893
lowerneck -18.0581 -3.43429 -10.1299
upperneck -1.92395 -2.85468 9.58365
head 2.57538 -0.989752 4.39181
rclavicle -6.75868e-015 -9.14409e-015
rhumerus 19.5529 35.9642 -72.7351
rradius 62.6264
rwrist 7.41734
rhand 12.3989 7.19653
rfingers 7.12502
rthumb 37.3979 -18.764
lclavicle -6.75868e-015 -9.14409e-015
lhumerus 22.5777 -39.1521 70.9342
lradius 60.3386
lwrist -32.6874
lhand 21.0594 39.1491
lfingers 7.12502
lthumb 45.5207 62.4406
rfemur -68.2411 -17.5215 7.49114
rtibia 86.9053
rfoot 6.05256 4.42549
rtoes -8.51845
lfemur -67.3694 19.1261 -5.00801
ltibia 88.9214
lfoot 1.66677 -17.8017
ltoes -9.06968
189
root 7.36675 9.3698 -21.4518 -24.7959 -2.63997 0.428329
lowerback 37.5859 1.547 -1.02412
upperback 14.9388 1.6143 1.51856
thorax -2.05611 0.658519 1.58662
lowerneck -17.6603 -3.38634 -10.2606
upperneck -2.54519 -2.77819 9.8489
head 2.33063 -0.949919 4.50582
rclavicle 2.38542e-015 7.55382e-015
rhumerus 19.4499 36.0519 -72.6716
rradius 62.669
rwrist 7.26463
rhand 12.0153 7.0414
rfingers 7.12502
rthumb 37.0352 -19.014
lclavicle 2.38542e-015 7.55382e-015
lhumerus 22.4619 -39.305 70.9165
lradius 60.5344
lwrist -32.5185
lhand 21.0139 39.6922
lfingers 7.12502
lthumb 45.4784 63.0008
rfemur -68.203 -17.6157 7.56841
rtibia 86.8909
rfoot 5.99684 4.47885
rtoes -9.13357
lfemur -67.3804 19.0529 -4.92412
ltibia 88.9532
lfoot 1.45593 -17.8156
ltoes -9.75206
190
root 7.36368 9.36994 -21.4547 -24.8389 -2.62189 0.407325
lowerback 37.7304 1.5907 -1.08779
upperback 14.8665 1.64807 1.55066
thorax -2.18566 0.671427 1.63897
lowerneck -17.4336 -3.37157 -9.911
upperneck -3.06178 -2.81099 9.54192
head 2.13161 -0.985588 4.35163
rclavicle 1.70955e-014 9.14409e-015
rhumerus 19.2794 36.0563 -72.7891
rradius 62.6599
rwrist 7.39591
rhand 11.9156 7.11291
rfingers 7.12502
rthumb 36.9409 -18.9668
lclavicle 1.70955e-014 9.14409e-015
lhumerus 22.2668 -39.4041 71.0746
lradius 60.5655
lwrist -32.6985
lhand 20.8568 39.7867
lfingers 7.12502
lthumb 45.3324 63.1542
rfemur -68.1742 -17.6723 7.61352
rtibia 86.9144
rfoot 5.98777 4.62231
rtoes -9.63876
lfemur -67.3271 19.0154 -4.88259
ltibia 88.9352
lfoot 1.5917 -17.7554
ltoes -9.02415
